<?xml version="1.0" encoding="utf-8"?>
<!-- Generator: Adobe Illustrator 28.1.0, SVG Export Plug-In . SVG Version: 6.00 Build 0)  -->
<svg version="1.1" id="Layer_1" xmlns="http://www.w3.org/2000/svg" xmlns:xlink="http://www.w3.org/1999/xlink" x="0px" y="0px"
	 viewBox="0 0 618.8 76.6" style="enable-background:new 0 0 618.8 76.6;" xml:space="preserve">
<style type="text/css">
	.st0{fill:#2491EB;}
	.st1{fill:#FFFFFF;}
	.st2{fill:#2A2F3B;}
</style>
<g>
	<polygon class="st0" points="293,31.8 324.4,0 300.7,0 281,19.8 	"/>
	<g>
		<polygon class="st1" points="73.5,29.7 17.8,29.7 17.8,0 0,0 0,76.6 17.8,76.6 17.8,43.7 73.5,43.7 73.5,76.6 91.5,76.6 91.5,0 
			73.5,0 		"/>
		<path class="st1" d="M159.4,46.3L123.3,0h-14.4v76.6h14.4V29.3c0-1.2,0-2.5-0.1-3.8s-0.2-2.8-0.3-4.4c0.5,1.2,1.1,2.5,1.8,3.7
			c0.7,1.3,1.7,2.6,2.7,4.1l28.9,38.4h3.6l28.8-38.3c0.6-0.8,1.2-1.9,2-3.2c0.7-1.3,1.6-2.9,2.5-4.9c-0.2,1.7-0.4,3.3-0.5,4.7
			c-0.1,1.4-0.2,2.6-0.2,3.5v47.3H209V0h-14.3L159.4,46.3z"/>
		<polygon class="st1" points="224.5,0 262.5,38.5 224.5,76.6 248.7,76.6 274.4,50.6 300.1,76.6 324.4,76.6 248.2,0 		"/>
		<polygon class="st1" points="340.4,0 304.4,38.3 340.4,76.6 618.8,76.6 618.8,0 		"/>
	</g>
	<path class="st2" d="M363,54.8v-33h6.2v28h25.7v5H363z M487.5,54.8v-33h27.9c2.5,0,4.4,0.5,5.5,1.5c1.1,1,1.7,2.7,1.7,4.9v3.8
		c0,1.7-0.5,3.1-1.4,4c-0.9,0.9-2.4,1.5-4.4,1.7c2,0.2,3.4,0.9,4.4,2c1,1.1,1.5,2.6,1.5,4.4v4.2c0,2.2-0.8,3.8-2.4,4.9
		c-1.6,1.1-4,1.6-7.2,1.6H487.5z M516.3,32.5v-3.1c0-1-0.3-1.7-0.8-2.1c-0.5-0.4-1.4-0.6-2.8-0.6h-19.1v8.5h19.1
		c1.4,0,2.4-0.2,2.9-0.6C516.1,34.2,516.3,33.5,516.3,32.5z M493.7,40v10h19.1c1.4,0,2.4-0.3,2.9-0.8c0.5-0.5,0.8-1.5,0.8-2.9v-2.6
		c0-1.4-0.3-2.3-0.8-2.9c-0.6-0.6-1.5-0.8-2.9-0.8H493.7z M581.3,26.7h-23.1v8.6h21.2c3.1,0,5.2,0.5,6.3,1.6
		c1.1,1.1,1.7,3.1,1.7,6.2v4c0,3-0.6,5.1-1.7,6.2c-1.1,1.1-3.2,1.6-6.4,1.6h-20.1c-3.1,0-5.3-0.5-6.4-1.6c-1.1-1.1-1.7-3.1-1.7-6.2
		v-0.9l5.7-1.2v4.9h24.9v-9.3h-21.2c-3.1,0-5.2-0.5-6.3-1.6c-1.1-1.1-1.7-3.1-1.7-6.2v-3.1c0-3,0.6-5.1,1.7-6.2
		c1.1-1.1,3.2-1.7,6.3-1.7h18.4c3.1,0,5.2,0.5,6.3,1.6s1.7,2.9,1.7,5.6v0.8l-5.7,1.2V26.7z M442.5,21.8h-5.7l-19.1,33h6.2l15.6-27
		l15.7,27h6.8L442.5,21.8z"/>
</g>
</svg>
